<svg width="96" height="96" viewBox="0 0 96 96" fill="none" xmlns="http://www.w3.org/2000/svg">
<path d="M48 6C24.8344 6 6 24.8344 6 48C6 71.1656 24.8344 90 48 90C71.1656 90 90 71.1656 90 48C90 24.8344 71.1656 6 48 6Z" fill="#FDDD4C"/>
<path d="M29.6065 58.9505C28.6881 57.5601 30.998 55.4558 30.0585 53.689C29.5169 52.67 28.6317 52.035 27.5686 51.9017C26.5482 51.7737 25.4972 52.1472 24.8272 52.8772C23.7694 54.0282 23.605 55.5951 23.8096 56.1495C23.8844 56.3527 24.0021 56.4082 24.0864 56.4201C24.6625 56.4959 24.9867 55.0172 25.1856 54.7093C25.7355 53.8605 26.9843 53.6036 27.8467 54.1615C29.4819 55.2192 28.064 56.9286 28.1864 58.3723C28.3054 59.7781 29.1813 60.3431 29.9676 60.4025C30.7325 60.4315 31.2674 60.0065 31.4024 59.6963C31.7263 58.9558 30.3622 60.0945 29.6065 58.9505Z" fill="black"/>
<path d="M63.7731 46.1875C63.3442 46.1282 62.8754 46.1296 62.3877 46.1875C62.0174 45.7202 61.6857 44.9638 61.4984 44.0808C61.1655 42.51 61.2002 41.3722 62.1296 41.2243C63.059 41.0765 63.5083 42.0269 63.8413 43.5977C64.0646 44.6537 64.0218 45.6239 63.7731 46.1875Z" fill="black"/>
<path d="M53.5939 47.1221C53.6306 47.4778 53.6436 47.8377 53.6332 48.1691C54.5324 48.2219 55.1694 48.649 55.339 48.92C55.4259 49.0599 55.3911 49.151 55.3631 49.1932C55.27 49.3381 55.0705 49.3157 54.6526 49.2688C54.2875 49.2278 53.8944 49.1918 53.4859 49.2106C53.2636 49.8924 52.6044 49.9562 52.1413 49.4519C51.8177 49.5505 51.1823 49.9564 50.9929 49.5153C50.9913 49.2965 51.2201 48.9784 51.6345 48.6975C51.3516 48.1579 51.162 47.5802 51.05 46.982C50.4626 47.0879 49.934 47.2524 49.5198 47.3814C49.3253 47.442 48.5558 47.7896 48.4656 47.3979C48.4054 47.1273 48.8266 46.6811 49.2719 46.359C49.7695 46.0058 50.3215 45.7547 50.8938 45.6098C50.8815 44.7578 51.0988 44.1634 51.7178 44.0649C52.4853 43.9429 52.961 44.5338 53.2902 45.628C54.2177 45.8857 55.1441 46.5247 55.553 47.1853C55.7121 47.4414 55.7429 47.6394 55.6399 47.7437C55.3828 48.0102 53.9586 47.2378 53.5939 47.1221Z" fill="black"/>
<path d="M59.6931 50.9514C60.2815 51.2365 60.9287 51.1243 61.14 50.7006C61.3513 50.2768 61.0451 49.7026 60.4567 49.4175C59.8683 49.1324 59.2211 49.2446 59.0098 49.6683C58.7985 50.092 59.1047 50.6662 59.6931 50.9514Z" fill="black"/>
<path d="M62.5895 48.8473C62.6002 48.1992 62.9974 47.6817 63.4748 47.6896C63.9522 47.6989 64.3306 48.2295 64.3199 48.8763C64.3092 49.5231 63.912 50.0405 63.4346 50.0326C62.9572 50.0247 62.5788 49.4941 62.5895 48.8473Z" fill="black"/>
<path fill-rule="evenodd" clip-rule="evenodd" d="M75.5355 56.7844C75.5448 56.8175 75.5316 56.7709 75.5355 56.7844C76.4943 56.7844 78 57.8721 78 60.5002C78 63.1151 76.9008 66.0772 76.6414 66.7346C72.6818 76.1013 63.2315 81.3152 51.9745 80.9852C41.4798 80.6777 32.5297 75.2116 28.6129 66.3003C26.2446 66.3029 23.8028 65.2747 21.9467 63.6511C19.9903 61.9403 18.7841 59.7267 18.5488 57.418C18.3655 55.6202 18.5889 53.9478 19.1599 52.4892L16.9601 50.6491C6.89332 42.2592 38.3788 7.71494 48.4482 16.3847C48.499 16.4282 51.8742 19.6965 51.8823 19.7045C56.7375 17.6696 69.7466 13.7952 69.7612 22.8144C69.7666 25.8094 67.8329 29.3021 64.7345 32.4715C68.3153 35.7493 67.371 40.4054 67.9412 44.6774L69.1849 45.018C71.5558 45.674 73.2421 46.5492 74.0672 47.4046C74.8922 48.2586 75.3014 49.0862 75.4499 50.0564C75.589 50.8392 75.5702 52.2212 74.5245 53.7669C74.9011 54.764 75.2448 55.7582 75.5355 56.7844ZM28.435 63.8702C28.7867 63.8781 29.1357 63.8557 29.4781 63.7976C33.1568 63.1785 34.1196 59.2344 33.5139 55.3615C32.8292 50.9883 29.8324 49.4466 27.7985 49.337C27.2328 49.308 26.7073 49.3582 26.274 49.444C22.6434 50.166 20.5934 53.2152 20.9972 57.1752C21.3623 60.7589 25.0344 63.7804 28.435 63.8702ZM20.2123 50.5184C21.4305 48.7721 23.4217 47.5088 25.6816 47.0746C28.558 39.4529 33.3614 32.4305 39.7187 27.598C44.4365 23.7133 49.5247 20.9268 49.5247 20.9268C49.5247 20.9268 46.7847 17.7905 45.9569 17.5595C40.866 16.2025 29.8712 23.6869 22.8507 33.5763C20.0104 37.5772 15.9438 44.6629 17.8882 48.3074C18.1275 48.7589 19.4848 49.9192 20.2123 50.5184ZM61.4864 62.1199C61.4944 62.2017 61.4436 62.2862 61.37 62.3165C61.37 62.3165 57.2794 64.1949 50.7817 62.2109C51.0154 64.1586 53.3773 64.8967 55.0275 65.1638C63.079 66.5313 70.6064 61.9865 72.3007 60.8421C72.5916 60.6456 72.2971 61.1508 72.2445 61.2249C70.1704 63.8662 64.5941 66.9246 57.3396 66.9233C54.1756 66.922 51.0131 65.8225 49.8523 64.1315C48.0511 61.5087 49.7627 57.6794 52.7648 58.078C57.8394 58.6436 63.0417 58.2187 67.7393 56.0664C71.8353 54.1893 73.3825 52.1249 73.1498 50.4524C72.789 47.8605 68.9462 47.4552 67.0038 46.8251C66.1587 46.5492 65.7415 46.3288 65.6465 44.7593C65.6051 44.0742 65.4847 41.6837 65.4406 40.695C65.363 38.9645 65.1517 36.5978 63.6647 35.621C63.2769 35.3662 62.8463 35.2434 62.393 35.2197C62.0316 35.2024 61.8172 35.2521 61.702 35.2788C61.6761 35.2848 61.6552 35.2896 61.6388 35.2923C60.8359 35.4271 60.3438 35.8333 59.7636 36.3123C59.7302 36.3399 59.6964 36.3678 59.6624 36.3958C57.8076 37.9217 56.2417 38.1712 54.4993 38.0973C53.9566 38.0746 53.3973 38.0204 52.8073 37.9632C52.2646 37.9106 51.696 37.8555 51.0906 37.8201L50.3511 37.7778C47.4333 37.63 44.3041 40.1169 43.7839 43.6492C43.2027 47.5919 45.4065 50.0069 46.8397 51.5775C47.1939 51.9656 47.501 52.3021 47.7074 52.5974C47.8398 52.7756 47.9936 53.0264 47.9936 53.2653C47.9936 53.5505 47.8063 53.7762 47.6231 53.9689C44.6464 56.9904 43.6943 61.7912 44.8163 65.7921C44.9567 66.291 45.1345 66.7689 45.3445 67.2256C47.9762 73.2963 56.1414 76.1237 64.1167 73.5523C69.7063 71.75 74.6448 67.3951 75.6505 61.3873C75.8898 59.8217 75.5381 59.2172 75.0594 58.9255C74.5526 58.6179 73.9455 58.7248 73.9455 58.7248C73.9455 58.7248 73.6687 56.8544 72.885 55.1543C70.5596 56.9653 67.5668 58.2378 65.2881 58.8832C61.6373 59.9171 57.6937 60.3196 53.9211 59.8321C52.3909 59.6344 51.3628 59.5015 50.9221 60.9147C55.9542 62.7337 61.2804 61.9549 61.2804 61.9549C61.3834 61.9443 61.4757 62.0182 61.4864 62.1199ZM46.9679 26.8219C44.2158 28.2118 41.1428 30.6868 38.6476 33.534C38.5593 33.6357 38.6903 33.7756 38.7987 33.6977C40.9543 32.1494 43.9096 30.7106 47.7809 29.7787C52.1176 28.7345 56.2925 29.1728 58.8426 29.7496C58.971 29.7787 59.0512 29.5609 58.9376 29.4975C57.2526 28.5643 54.6664 27.9307 52.8317 27.9175C52.7421 27.9161 52.6913 27.8132 52.7448 27.7419C53.0617 27.3208 53.4963 26.905 53.8935 26.6041C53.9817 26.5354 53.9283 26.3942 53.8159 26.4008C51.5336 26.5391 46.3207 28.9161 46.3394 28.8296C46.4731 28.196 46.8943 27.3591 47.1123 26.9684C47.1645 26.876 47.0628 26.7744 46.9679 26.8219Z" fill="black"/>
</svg>
