<?xml version="1.0" encoding="UTF-8"?>
<svg width="88px" height="88px" viewBox="0 0 88 88" version="1.1" xmlns="http://www.w3.org/2000/svg" xmlns:xlink="http://www.w3.org/1999/xlink">
    <!-- Generator: Sketch 43.2 (39069) - http://www.bohemiancoding.com/sketch -->
    <title>icon-xero-white-bg</title>
    <desc>Created with Sketch.</desc>
    <defs></defs>
    <g id="Page-1" stroke="none" stroke-width="1" fill="none" fill-rule="evenodd">
        <g id="icon-xero-white-bg" fill-rule="nonzero">
            <g id="Group" fill="#FFFFFF">
                <rect id="Rectangle-path" x="0" y="0" width="88" height="88" rx="16"></rect>
            </g>
            <path d="M44.001,71.829 C59.36998,71.829 71.829,59.36998 71.829,44.001 C71.829,36.6205555 68.8971298,29.5423948 63.6783675,24.3236325 C58.4596052,19.1048702 51.3814445,16.173 44.001,16.173 C28.63202,16.173 16.173,28.63202 16.173,44.001 C16.173,59.36998 28.63202,71.829 44.001,71.829" id="Shape" fill="#2AB5D4"></path>
            <path d="M29.493,43.92 L34.242,39.159 C34.3997002,38.999204 34.4877764,38.7835073 34.487,38.559 C34.486449,38.0892341 34.1057659,37.708551 33.636,37.708 C33.4102096,37.7086806 33.1941064,37.7998042 33.036,37.961 L28.282,42.702 L23.516,37.952 C23.3563053,37.7940261 23.1406286,37.7055986 22.916,37.706 C22.4463959,37.7059997 22.0655518,38.0863962 22.065,38.556 C22.0649777,38.7837942 22.1569271,39.0019485 22.32,39.161 L27.068,43.909 L22.322,48.664 C22.157117,48.8237124 22.0640273,49.0434473 22.064,49.273 C22.0645518,49.7426038 22.4453959,50.1230003 22.915,50.123 C23.1402111,50.1233757 23.3562316,50.0337272 23.515,49.874 L28.274,45.122 L33.015,49.857 C33.1753383,50.0267388 33.3985056,50.1229503 33.632,50.123 C34.1017659,50.122449 34.482449,49.7417659 34.483,49.272 C34.4839053,49.0470774 34.3949936,48.8310976 34.236,48.672 L29.493,43.92 Z" id="Shape" fill="#FFFFFF"></path>
            <path d="M57.725,43.919 C57.7261029,44.7727654 58.4182341,45.4644492 59.272,45.465 C60.1249849,45.4633476 60.8158996,44.7719857 60.817,43.919 C60.8158996,43.0660143 60.1249849,42.3746524 59.272,42.373 C58.4182341,42.3735508 57.7261029,43.0652346 57.725,43.919" id="Shape" fill="#FFFFFF"></path>
            <path d="M54.792,43.919 C54.7947555,41.4470112 56.7980112,39.4437555 59.27,39.441 C61.7415983,39.4443064 63.7442456,41.447401 63.747,43.919 C63.7442445,46.3904365 61.7414365,48.3932445 59.27,48.396 C56.7981729,48.3937955 54.7947565,46.3908265 54.792,43.919 M53.03,43.919 C53.0338587,47.3634953 55.8255041,50.1546933 59.27,50.158 C62.7146583,50.1546944 65.5065903,47.3636571 65.511,43.919 C65.5065914,40.4741806 62.7148201,37.6828566 59.27,37.679 C55.8253423,37.6828577 53.0338577,40.4743423 53.03,43.919" id="Shape" fill="#FFFFFF"></path>
            <path d="M52.593,37.786 L52.331,37.786 C51.543678,37.7824141 50.7776285,38.0414001 50.154,38.522 C50.0678291,38.1319228 49.7224807,37.8538986 49.323,37.853 C49.0989127,37.8521992 48.8837725,37.9408632 48.7253178,38.0993178 C48.5668632,38.2577725 48.4781992,38.4729127 48.479,38.697 L48.479,49.206 C48.4811997,49.6745939 48.8614013,50.0534552 49.33,50.054 C49.7989872,50.0534525 50.179349,49.6739846 50.181,49.205 L50.181,42.743 C50.181,40.589 50.381,39.72 52.223,39.489 C52.341523,39.4757424 52.4607446,39.4697313 52.58,39.471 C52.805934,39.478294 53.025212,39.3938919 53.1879474,39.2369953 C53.3506829,39.0800987 53.4430374,38.8640496 53.444,38.638 C53.4428973,38.1676823 53.0613189,37.7869987 52.591,37.787" id="Shape" fill="#FFFFFF"></path>
            <path d="M36.255,42.892 L36.255,42.82 C36.7619761,40.8205951 38.561321,39.4203267 40.624,39.42 C42.7132652,39.4204997 44.5282883,40.8567893 45.009,42.89 L36.255,42.892 Z M46.755,42.731 C46.4336355,41.0494203 45.4339043,39.5744189 43.991,38.653 C41.847223,37.3104995 39.107772,37.3829947 37.038,38.837 C35.3880072,40.0222844 34.4095095,41.9294058 34.409,43.961 C34.4090267,44.4667497 34.4714993,44.9705611 34.595,45.461 C35.2411518,47.9530035 37.3408611,49.7995592 39.895,50.122 C40.6459914,50.2158317 41.4079963,50.1652576 42.14,49.973 C42.801713,49.8115537 43.4319749,49.5412001 44.005,49.173 C44.6180505,48.7606643 45.1586797,48.2497697 45.605,47.661 L45.635,47.628 C45.9646502,47.2408398 45.9199847,46.6601883 45.535,46.328 C45.3476333,46.1740309 45.1035864,46.1070936 44.8638864,46.1439265 C44.6241864,46.1807594 44.4114956,46.3178801 44.279,46.521 C44.19,46.648 44.09,46.779 43.979,46.91 C43.625565,47.3052403 43.2101288,47.6402913 42.749,47.902 C42.1051088,48.2458379 41.3869396,48.4270967 40.657,48.43 C38.7495722,48.4219742 37.0473752,47.2311138 36.386,45.442 C36.3030538,45.2093153 36.2395036,44.970166 36.196,44.727 C36.19,44.681 36.186,44.637 36.184,44.596 L45.055,44.596 C45.5490694,44.6432016 46.0364121,44.4543057 46.3696053,44.0864541 C46.7027986,43.7186024 46.8427041,43.2150044 46.747,42.728 L46.755,42.731 Z" id="Shape" fill="#FFFFFF"></path>
        </g>
    </g>
</svg>